<?xml version="1.0" encoding="UTF-8" standalone="no"?>
<!-- Uploaded to: SVG Repo, www.svgrepo.com, Generator: SVG Repo Mixer Tools -->

<svg
   width="800px"
   height="800px"
   viewBox="0 0 24 24"
   fill="none"
   version="1.1"
   id="svg1"
   sodipodi:docname="arrow-narrow-up-svgrepo-com.svg"
   inkscape:version="1.4 (e7c3feb100, 2024-10-09)"
   xmlns:inkscape="http://www.inkscape.org/namespaces/inkscape"
   xmlns:sodipodi="http://sodipodi.sourceforge.net/DTD/sodipodi-0.dtd"
   xmlns="http://www.w3.org/2000/svg"
   xmlns:svg="http://www.w3.org/2000/svg">
  <defs
     id="defs1" />
  <sodipodi:namedview
     id="namedview1"
     pagecolor="#ffffff"
     bordercolor="#111111"
     borderopacity="1"
     inkscape:showpageshadow="0"
     inkscape:pageopacity="0"
     inkscape:pagecheckerboard="1"
     inkscape:deskcolor="#d1d1d1"
     inkscape:zoom="1.045"
     inkscape:cx="400"
     inkscape:cy="347.36842"
     inkscape:window-width="1920"
     inkscape:window-height="1050"
     inkscape:window-x="0"
     inkscape:window-y="0"
     inkscape:window-maximized="1"
     inkscape:current-layer="svg1" />
  <path
     style="fill:#ffffff;stroke-width:0.0287081"
     d="m 3.3267074,11.256102 c 0.1014148,-0.275257 0.3074204,-0.48646 0.581332,-0.595995 l 0.1632994,-0.0653 6.8968022,0.06697 c 3.793243,0.03683 6.8969,0.05722 6.897017,0.04531 1.17e-4,-0.01192 -0.525361,-0.556445 -1.167729,-1.210073 C 16.055061,8.8433817 15.499589,8.2613891 15.463046,8.2036939 15.21716,7.8154854 15.291672,7.2871528 15.637195,6.9688807 c 0.298158,-0.2746426 0.708941,-0.3353202 1.077737,-0.1591943 0.186638,0.089133 0.306935,0.2062896 2.275507,2.2160888 2.35899,2.4083928 2.242341,2.2670318 2.237975,2.7120908 -0.0044,0.444861 0.114856,0.306022 -2.290817,2.667808 -2.008793,1.972146 -2.130008,2.085652 -2.318473,2.171024 -0.372348,0.168669 -0.781784,0.0999 -1.074405,-0.180448 -0.347059,-0.332506 -0.405236,-0.875553 -0.134372,-1.254272 0.04552,-0.06364 0.61202,-0.633693 1.258893,-1.266779 0.646872,-0.633086 1.176227,-1.160735 1.176343,-1.172553 1.16e-4,-0.01182 -3.116234,-0.05537 -6.925221,-0.09677 L 3.9949308,12.530538 3.837775,12.454513 C 3.3943905,12.240029 3.1635892,11.698796 3.3267079,11.256052 Z"
     id="path2"
     inkscape:transform-center-x="0.58012473"
     inkscape:transform-center-y="0.11961515" />
</svg>
